# This file uses centimeters as units for non-parametric coordinates.

v 8.439924 0.655813 0.000000
v 8.255492 0.698444 -1.754759
v 7.710255 0.849030 -3.432827
v 6.828042 1.141666 -4.960863
v 5.647412 1.525919 -6.272087
v 4.219962 1.785855 -7.309190
v 2.608080 1.651916 -8.026846
v 0.882212 1.125773 -8.393690
v -0.882213 0.615456 -8.393690
v -2.608081 0.552747 -8.026846
v -4.219964 0.937294 -7.309189
v -5.647414 1.419147 -6.272086
v -6.828044 1.715196 -4.960863
v -7.710257 1.796375 -3.432826
v -8.255494 1.775094 -1.754758
v -8.439926 1.755610 0.000002
v -8.255494 1.775094 1.754761
v -7.710256 1.796375 3.432829
v -6.828043 1.715196 4.960866
v -5.647412 1.419146 6.272089
v -4.219962 0.937293 7.309192
v -2.608079 0.552747 8.026848
v -0.882211 0.615457 8.393693
v 0.882214 1.125774 8.393692
v 2.608083 1.651917 8.026847
v 4.219965 1.785855 7.309191
v 5.647415 1.525918 6.272087
v 6.828046 1.141665 4.960863
v 7.710259 0.849028 3.432826
v 8.255496 0.698443 1.754758
v 9.173831 0.538420 0.000000
v 8.973361 0.561541 -1.907347
v 8.380712 0.668982 -3.731333
v 7.421785 0.940235 -5.392243
v 6.138492 1.375838 -6.817486
v 4.586916 1.750388 -7.944772
v 2.834870 1.697762 -8.724833
v 0.958926 1.152331 -9.123578
v -0.958927 0.601487 -9.123578
v -2.834871 0.584575 -8.724834
v -4.586917 1.060342 -7.944773
v -6.138494 1.563082 -6.817487
v -7.421788 1.785275 -5.392244
v -8.380715 1.762523 -3.731334
v -8.973364 1.666753 -1.907347
v -9.173835 1.621965 0.000001
v -8.973365 1.666752 1.907348
v -8.380715 1.762523 3.731336
v -7.421789 1.785275 5.392247
v -6.138494 1.563082 6.817490
v -4.586917 1.060342 7.944777
v -2.834870 0.584574 8.724839
v -0.958926 0.601487 9.123583
v 0.958929 1.152332 9.123583
v 2.834873 1.697763 8.724838
v 4.586921 1.750387 7.944776
v 6.138498 1.375836 6.817489
v 7.421793 0.940233 5.392246
v 8.380720 0.668980 3.731335
v 8.973369 0.561540 1.907347
vt 0.000000 0.750000
vt 0.033333 0.750000
vt 0.066667 0.750000
vt 0.100000 0.750000
vt 0.133333 0.750000
vt 0.166667 0.750000
vt 0.200000 0.750000
vt 0.233333 0.750000
vt 0.266667 0.750000
vt 0.300000 0.750000
vt 0.333333 0.750000
vt 0.366667 0.750000
vt 0.400000 0.750000
vt 0.433333 0.750000
vt 0.466667 0.750000
vt 0.500000 0.750000
vt 0.533333 0.750000
vt 0.566667 0.750000
vt 0.600000 0.750000
vt 0.633333 0.750000
vt 0.666667 0.750000
vt 0.700000 0.750000
vt 0.733334 0.750000
vt 0.766667 0.750000
vt 0.800000 0.750000
vt 0.833334 0.750000
vt 0.866667 0.750000
vt 0.900000 0.750000
vt 0.933334 0.750000
vt 0.966667 0.750000
vt 1.000000 0.750000
vt 0.000000 0.500000
vt 0.033333 0.500000
vt 0.066667 0.500000
vt 0.100000 0.500000
vt 0.133333 0.500000
vt 0.166667 0.500000
vt 0.200000 0.500000
vt 0.233333 0.500000
vt 0.266667 0.500000
vt 0.300000 0.500000
vt 0.333333 0.500000
vt 0.366667 0.500000
vt 0.400000 0.500000
vt 0.433333 0.500000
vt 0.466667 0.500000
vt 0.500000 0.500000
vt 0.533333 0.500000
vt 0.566667 0.500000
vt 0.600000 0.500000
vt 0.633333 0.500000
vt 0.666667 0.500000
vt 0.700000 0.500000
vt 0.733334 0.500000
vt 0.766667 0.500000
vt 0.800000 0.500000
vt 0.833334 0.500000
vt 0.866667 0.500000
vt 0.900000 0.500000
vt 0.933334 0.500000
vt 0.966667 0.500000
vt 1.000000 0.500000
vn 0.197802 0.980242 -0.000442
vn 0.172489 0.985011 -0.000000
vn 0.172489 0.985011 0.000000
vn 0.197549 0.980293 -0.000442
vn 0.257214 0.966354 0.000747
vn 0.256092 0.966652 0.000708
vn 0.301120 0.953581 0.003033
vn 0.300446 0.953794 0.002963
vn 0.260455 0.965485 0.001281
vn 0.263039 0.964784 0.001423
vn 0.082021 0.996600 -0.007813
vn 0.082623 0.996550 -0.007784
vn -0.170214 0.985323 -0.012853
vn -0.168963 0.985539 -0.012867
vn -0.279896 0.960029 -0.001554
vn -0.279935 0.960017 -0.001682
vn -0.151683 0.988351 0.012395
vn -0.151548 0.988372 0.012399
vn 0.117747 0.993002 0.009136
vn 0.118756 0.992882 0.009081
vn 0.277987 0.960579 -0.003381
vn 0.279540 0.960127 -0.003657
vn 0.256083 0.966625 -0.007616
vn 0.253483 0.967310 -0.007559
vn 0.115974 0.993245 -0.003900
vn 0.115229 0.993331 -0.003878
vn -0.036527 0.999333 -0.000600
vn -0.036561 0.999331 -0.000599
vn -0.133340 0.991070 0.000081
vn -0.133485 0.991051 0.000081
vn -0.164417 0.986391 0.000000
vn -0.164417 0.986391 0.000000
vn -0.133340 0.991070 -0.000081
vn -0.133486 0.991051 -0.000081
vn -0.036527 0.999332 0.000600
vn -0.036561 0.999331 0.000599
vn 0.115974 0.993245 0.003900
vn 0.115228 0.993331 0.003877
vn 0.256083 0.966625 0.007615
vn 0.253483 0.967310 0.007558
vn 0.277987 0.960579 0.003380
vn 0.279540 0.960127 0.003657
vn 0.117747 0.993002 -0.009136
vn 0.118756 0.992882 -0.009081
vn -0.151684 0.988351 -0.012394
vn -0.151548 0.988372 -0.012399
vn -0.279896 0.960029 0.001554
vn -0.279935 0.960018 0.001683
vn -0.170214 0.985323 0.012854
vn -0.168962 0.985539 0.012868
vn 0.082022 0.996600 0.007813
vn 0.082623 0.996551 0.007784
vn 0.260456 0.965485 -0.001281
vn 0.263039 0.964784 -0.001423
vn 0.301120 0.953581 -0.003033
vn 0.300446 0.953794 -0.002963
vn 0.257213 0.966355 -0.000747
vn 0.256091 0.966652 -0.000708
vn 0.197801 0.980242 0.000442
vn 0.197548 0.980293 0.000442
s 1
f 2/2/1 1/1/2 31/32/3 32/33/4
f 3/3/5 2/2/1 32/33/4 33/34/6
f 4/4/7 3/3/5 33/34/6 34/35/8
f 5/5/9 4/4/7 34/35/8 35/36/10
f 6/6/11 5/5/9 35/36/10 36/37/12
f 7/7/13 6/6/11 36/37/12 37/38/14
f 8/8/15 7/7/13 37/38/14 38/39/16
f 9/9/17 8/8/15 38/39/16 39/40/18
f 10/10/19 9/9/17 39/40/18 40/41/20
f 11/11/21 10/10/19 40/41/20 41/42/22
f 12/12/23 11/11/21 41/42/22 42/43/24
f 13/13/25 12/12/23 42/43/24 43/44/26
f 14/14/27 13/13/25 43/44/26 44/45/28
f 15/15/29 14/14/27 44/45/28 45/46/30
f 16/16/31 15/15/29 45/46/30 46/47/32
f 17/17/33 16/16/31 46/47/32 47/48/34
f 18/18/35 17/17/33 47/48/34 48/49/36
f 19/19/37 18/18/35 48/49/36 49/50/38
f 20/20/39 19/19/37 49/50/38 50/51/40
f 21/21/41 20/20/39 50/51/40 51/52/42
f 22/22/43 21/21/41 51/52/42 52/53/44
f 23/23/45 22/22/43 52/53/44 53/54/46
f 24/24/47 23/23/45 53/54/46 54/55/48
f 25/25/49 24/24/47 54/55/48 55/56/50
f 26/26/51 25/25/49 55/56/50 56/57/52
f 27/27/53 26/26/51 56/57/52 57/58/54
f 28/28/55 27/27/53 57/58/54 58/59/56
f 29/29/57 28/28/55 58/59/56 59/60/58
f 30/30/59 29/29/57 59/60/58 60/61/60
f 1/31/2 30/30/59 60/61/60 31/62/3
